<?xml version="1.0" encoding="UTF-8"?>
<!DOCTYPE svg PUBLIC "-//W3C//DTD SVG 1.1//EN" "http://www.w3.org/Graphics/SVG/1.1/DTD/svg11.dtd">
<!-- Creator: CorelDRAW 2017 -->
<svg xmlns="http://www.w3.org/2000/svg" xml:space="preserve" width="5.5878mm" height="5.5878mm" version="1.1" style="shape-rendering:geometricPrecision; text-rendering:geometricPrecision; image-rendering:optimizeQuality; fill-rule:evenodd; clip-rule:evenodd"
viewBox="0 0 558.78 558.78"
 xmlns:xlink="http://www.w3.org/1999/xlink">
 <defs>
  <style type="text/css">
   <![CDATA[
    .fil1 {fill:none}
    .fil0 {fill:black}
   ]]>
  </style>
 </defs>
 <g id="Capa_x0020_1">
  <metadata id="CorelCorpID_0Corel-Layer"/>
  <path class="fil0" d="M279.39 76.38c116.04,0 210.13,90.89 210.13,203 0,112.11 -94.09,203 -210.13,203 -116.04,0 -210.13,-90.89 -210.13,-203 0,-112.11 94.09,-203 210.13,-203zm-7.1 71.45c-49.11,10.72 -34.73,82.19 15.46,73.49 5.23,-0.92 10.44,-3.19 13.21,-5 38.06,-24.79 11.44,-77.26 -28.67,-68.49zm-1.26 94.94c-49.12,10.72 -34.73,82.18 15.47,73.48 5.22,-0.9 10.43,-3.18 13.21,-4.99 38.04,-24.8 11.43,-77.25 -28.68,-68.49zm-1.26 94.93c-49.11,10.72 -34.73,82.2 15.46,73.49 5.22,-0.91 10.43,-3.18 13.21,-4.99 38.05,-24.79 11.43,-77.26 -28.67,-68.5z"/>
  <polygon class="fil1" points="-0.01,-0.01 558.79,-0.01 558.79,558.79 -0.01,558.79 "/>
 </g>
</svg>
