<?xml version="1.0" encoding="UTF-8"?>
<!DOCTYPE svg PUBLIC "-//W3C//DTD SVG 1.1//EN" "http://www.w3.org/Graphics/SVG/1.1/DTD/svg11.dtd">
<!-- Creator: CorelDRAW 2017 -->
<svg xmlns="http://www.w3.org/2000/svg" xml:space="preserve" width="5.5878mm" height="5.5878mm" version="1.1" style="shape-rendering:geometricPrecision; text-rendering:geometricPrecision; image-rendering:optimizeQuality; fill-rule:evenodd; clip-rule:evenodd"
viewBox="0 0 558.78 558.78"
 xmlns:xlink="http://www.w3.org/1999/xlink">
 <defs>
  <style type="text/css">
   <![CDATA[
    .fil0 {fill:none}
    .fil1 {fill:black}
    .fil2 {fill:#4EF298}
   ]]>
  </style>
    <clipPath id="id0">
     <path d="M239.65 200.75c-9.29,-26.16 -17.51,-38.92 -17.49,-77.76 0.05,-92.46 55.97,-126.74 68.7,-23.83 4.58,36.99 -1.2,54.07 -11.26,91.35l13.7 2.62c11.37,-28.88 33.01,-60.21 52.51,-72.54 16.04,-10.14 68.7,-20.77 93.74,0.37 15.92,13.45 5.64,27.44 -11.42,32.06 -43.37,11.72 -39.55,16.37 -69.78,42.15 -13.21,11.27 -21.82,12.97 -34.98,22.06 2.41,11.78 15.7,30.57 -0.44,56.55 -25.47,-17.22 -46.41,-30.1 -83.53,-27 -6.16,0.51 -9.15,1.6 -14.22,2.16 -27.12,2.98 3.7,-41.34 14.47,-48.19z"/>
    </clipPath>
 </defs>
 <g id="Capa_x0020_1">
  <metadata id="CorelCorpID_0Corel-Layer"/>
  <polygon class="fil0" points="-0.01,-0.01 558.79,-0.01 558.79,558.79 -0.01,558.79 "/>
  <g id="_1736106671808">
   <path class="fil1" d="M244.89 264.49c73.76,0 133.57,57.78 133.57,129.04 0,71.26 -59.81,129.04 -133.57,129.04 -73.77,0 -133.57,-57.78 -133.57,-129.04 0,-71.26 59.8,-129.04 133.57,-129.04zm-4.51 45.42c-31.22,6.81 -22.08,52.24 9.82,46.71 3.33,-0.58 6.64,-2.02 8.4,-3.18 24.19,-15.76 7.27,-49.11 -18.22,-43.53zm-0.8 60.34c-31.23,6.82 -22.08,52.25 9.82,46.71 3.32,-0.57 6.63,-2.02 8.4,-3.17 24.19,-15.76 7.27,-49.11 -18.22,-43.54zm-0.81 60.35c-31.22,6.82 -22.07,52.25 9.83,46.72 3.32,-0.58 6.63,-2.03 8.4,-3.18 24.18,-15.76 7.26,-49.11 -18.23,-43.54z"/>
   <path class="fil0" d="M239.65 200.75c-9.29,-26.16 -17.51,-38.92 -17.49,-77.76 0.05,-92.46 55.97,-126.74 68.7,-23.83 4.58,36.99 -1.2,54.07 -11.26,91.35l13.7 2.62c11.37,-28.88 33.01,-60.21 52.51,-72.54 16.04,-10.14 68.7,-20.77 93.74,0.37 15.92,13.45 5.64,27.44 -11.42,32.06 -43.37,11.72 -39.55,16.37 -69.78,42.15 -13.21,11.27 -21.82,12.97 -34.98,22.06 2.41,11.78 15.7,30.57 -0.44,56.55 -25.47,-17.22 -46.41,-30.1 -83.53,-27 -6.16,0.51 -9.15,1.6 -14.22,2.16 -27.12,2.98 3.7,-41.34 14.47,-48.19z"/>
   <path id="1" class="fil1" d="M239.65 200.75c-9.29,-26.16 -17.51,-38.92 -17.49,-77.76 0.05,-92.46 55.97,-126.74 68.7,-23.83 4.58,36.99 -1.2,54.07 -11.26,91.35l13.7 2.62c11.37,-28.88 33.01,-60.21 52.51,-72.54 16.04,-10.14 68.7,-20.77 93.74,0.37 15.92,13.45 5.64,27.44 -11.42,32.06 -43.37,11.72 -39.55,16.37 -69.78,42.15 -13.21,11.27 -21.82,12.97 -34.98,22.06 2.41,11.78 15.7,30.57 -0.44,56.55 -25.47,-17.22 -46.41,-30.1 -83.53,-27 -6.16,0.51 -9.15,1.6 -14.22,2.16 -27.12,2.98 3.7,-41.34 14.47,-48.19z"/>
   <g style="clip-path:url(#id0)">
    <g>
     <path id="2" class="fil2" d="M140.21 128.88c42.21,7.13 70.46,45.97 63.08,86.76 -7.38,40.78 -47.58,68.07 -89.8,60.94 -42.22,-7.13 -70.46,-45.97 -63.08,-86.76 7.37,-40.78 47.58,-68.07 89.8,-60.94z"/>
    </g>
   </g>
  </g>
 </g>
</svg>
