<?xml version="1.0" encoding="UTF-8"?>
<!DOCTYPE svg PUBLIC "-//W3C//DTD SVG 1.1//EN" "http://www.w3.org/Graphics/SVG/1.1/DTD/svg11.dtd">
<!-- Creator: CorelDRAW 2017 -->
<svg xmlns="http://www.w3.org/2000/svg" xml:space="preserve" width="5.5878mm" height="5.5878mm" version="1.1" style="shape-rendering:geometricPrecision; text-rendering:geometricPrecision; image-rendering:optimizeQuality; fill-rule:evenodd; clip-rule:evenodd"
viewBox="0 0 558.78 558.78"
 xmlns:xlink="http://www.w3.org/1999/xlink">
 <defs>
  <style type="text/css">
   <![CDATA[
    .fil0 {fill:none}
    .fil1 {fill:black}
   ]]>
  </style>
 </defs>
 <g id="Capa_x0020_1">
  <metadata id="CorelCorpID_0Corel-Layer"/>
  <polygon class="fil0" points="-0.01,-0.01 558.79,-0.01 558.79,558.79 -0.01,558.79 "/>
  <path class="fil1" d="M282.72 75.22c112.76,1.84 202.68,94.74 200.84,207.5 -1.84,112.76 -94.74,202.68 -207.5,200.84 -112.76,-1.84 -202.68,-94.74 -200.85,-207.5 1.84,-112.76 94.75,-202.68 207.51,-200.84zm-63.38 259.87c-24.26,-26.39 -40.33,-37.42 -60.5,-83.56 -48.03,-109.83 -1.7,-178.63 66.42,-62.81 24.49,41.63 26.75,64.81 34.59,114.14l17.08 -3.77c-1.98,-40.01 6.55,-88.09 22.52,-112.53 13.13,-20.09 68.02,-59.18 107.74,-46.65 25.25,7.97 20.74,29.76 3.56,43.81 -43.66,35.7 -36.86,39.31 -58.13,85.12 -9.29,20.01 -18.29,26.35 -28.66,43.76 8.89,12.78 33.91,28.42 28.9,67.38 -38.18,-7.66 -68.89,-12.43 -109.87,9.9 -6.8,3.7 -9.66,6.5 -15.19,9.7 -29.56,17.17 -17.25,-50.95 -8.46,-64.49zm56.58 80.62c-31.92,20.81 -2.24,69.49 30.99,49.88 3.46,-2.04 6.54,-5.08 8.01,-7.14 20.23,-28.22 -12.94,-59.73 -39,-42.74z"/>
 </g>
</svg>
