<?xml version="1.0" encoding="UTF-8"?>
<!DOCTYPE svg PUBLIC "-//W3C//DTD SVG 1.1//EN" "http://www.w3.org/Graphics/SVG/1.1/DTD/svg11.dtd">
<!-- Creator: CorelDRAW 2017 -->
<svg xmlns="http://www.w3.org/2000/svg" xml:space="preserve" width="5.5878mm" height="5.5878mm" version="1.1" style="shape-rendering:geometricPrecision; text-rendering:geometricPrecision; image-rendering:optimizeQuality; fill-rule:evenodd; clip-rule:evenodd"
viewBox="0 0 558.78 558.78"
 xmlns:xlink="http://www.w3.org/1999/xlink">
 <defs>
  <style type="text/css">
   <![CDATA[
    .str0 {stroke:black;stroke-width:7.62;stroke-miterlimit:22.9256}
    .fil0 {fill:none}
    .fil1 {fill:black}
   ]]>
  </style>
   <clipPath id="id0">
    <path d="M140.39 305.93c-28.18,-27.88 -46.5,-39.22 -71.19,-89.11 -58.76,-118.78 -11.18,-197.17 70.09,-72.83 29.22,44.69 32.91,70.18 44.14,124.24l18.67 -5.06c-4.26,-44.07 2.65,-97.61 19,-125.43 13.46,-22.87 72.04,-68.9 116.56,-57.13 28.3,7.49 24.45,31.78 6.21,48.19 -46.35,41.7 -38.65,45.33 -59.75,97.02 -9.22,22.59 -18.83,30.06 -29.37,49.82 10.48,13.64 38.92,29.61 35.43,72.9 -42.57,-6.47 -76.74,-10.14 -120.83,16.65 -7.31,4.45 -10.33,7.69 -16.26,11.52 -31.75,20.49 -21.72,-55.36 -12.7,-70.78zm-1.34 134.51l22 41.4 -36.66 0 -8.86 -17.87 -16.35 17.87 -38.95 0 41.7 -42.62 -21.69 -40.93 36.2 0 8.86 17.71 16.5 -17.71 37.73 0 -40.48 42.15zm43.51 -42.15l34.36 0 -16.65 83.55 -34.36 0 16.65 -83.55zm20.92 -6.73c-5.9,0 -10.64,-1.55 -14.2,-4.65 -3.57,-3.11 -5.35,-7.01 -5.35,-11.69 0,-5.4 2.04,-9.88 6.11,-13.44 4.07,-3.57 9.37,-5.35 15.89,-5.35 5.9,0 10.64,1.45 14.2,4.36 3.57,2.9 5.35,6.69 5.35,11.38 0,5.8 -2.01,10.48 -6.03,14.05 -4.03,3.56 -9.35,5.34 -15.97,5.34zm26.25 6.73l34.36 0 -16.65 83.55 -34.36 0 16.65 -83.55zm20.92 -6.73c-5.9,0 -10.64,-1.55 -14.2,-4.65 -3.57,-3.11 -5.35,-7.01 -5.35,-11.69 0,-5.4 2.04,-9.88 6.11,-13.44 4.07,-3.57 9.37,-5.35 15.89,-5.35 5.9,0 10.64,1.45 14.2,4.36 3.57,2.9 5.35,6.69 5.35,11.38 0,5.8 -2.01,10.48 -6.03,14.05 -4.03,3.56 -9.35,5.34 -15.97,5.34zm79.86 5.2c5.7,0 11.2,1.53 16.5,4.58 5.29,3.06 9.6,7.51 12.91,13.37 3.31,5.85 4.96,12.75 4.96,20.69 0,8.97 -2.01,17.11 -6.03,24.44 -4.03,7.34 -9.45,13.09 -16.27,17.26 -6.82,4.18 -14.21,6.27 -22.15,6.27 -12.32,0 -20.72,-4.18 -25.2,-12.53l-2.14 11 -32.84 0 22.6 -113.34 34.52 0 -7.02 35.44c5.7,-4.79 12.42,-7.18 20.16,-7.18zm-15.73 59.42c4.48,0 8.12,-1.73 10.92,-5.2 2.8,-3.46 4.2,-8.09 4.2,-13.9 0,-3.97 -1.09,-7.15 -3.28,-9.54 -2.19,-2.4 -5.22,-3.59 -9.09,-3.59 -4.48,0 -8.12,1.73 -10.92,5.19 -2.8,3.46 -4.2,8.1 -4.2,13.9 0,3.97 1.09,7.16 3.28,9.55 2.19,2.39 5.22,3.59 9.09,3.59zm102.76 -59.42c8.05,0 15.25,1.42 21.62,4.28 6.36,2.85 11.38,7.07 15.04,12.67 3.67,5.6 5.5,12.38 5.5,20.32 0,1.22 -0.1,3.16 -0.3,5.8l-59.12 11c1.12,2.45 2.96,4.23 5.5,5.35 2.55,1.12 5.91,1.68 10.08,1.68 6.62,0 12.53,-1.94 17.72,-5.81l14.36 20.93c-10.18,6.93 -22.3,10.39 -36.35,10.39 -9.17,0 -17.24,-1.58 -24.22,-4.74 -6.97,-3.15 -12.37,-7.64 -16.19,-13.44 -3.82,-5.8 -5.73,-12.63 -5.73,-20.47 0,-9.16 2.17,-17.39 6.5,-24.67 4.32,-7.28 10.43,-12.98 18.33,-17.11 7.89,-4.12 16.98,-6.18 27.26,-6.18zm-1.83 23.52c-4.28,0 -7.69,1.25 -10.23,3.74 -2.55,2.5 -4.38,5.83 -5.5,10.01l27.8 -5.19c-0.51,-2.75 -1.86,-4.87 -4.05,-6.34 -2.19,-1.48 -4.86,-2.22 -8.02,-2.22zm89.03 -13.44c6.82,-6.72 16.6,-10.08 29.33,-10.08l-6.11 30.55c-2.55,-0.41 -5.04,-0.61 -7.49,-0.61 -5.9,0 -10.56,1.3 -13.97,3.89 -3.41,2.6 -5.73,6.8 -6.95,12.6l-7.79 38.65 -34.52 0 16.65 -83.55 32.53 0 -1.68 8.55z"/>
   </clipPath>
   <clipPath id="id1">
    <path d="M140.39 305.93c-28.18,-27.88 -46.5,-39.22 -71.19,-89.11 -58.76,-118.78 -11.18,-197.17 70.09,-72.83 29.22,44.69 32.91,70.18 44.14,124.24l18.67 -5.06c-4.26,-44.07 2.65,-97.61 19,-125.43 13.46,-22.87 72.04,-68.9 116.56,-57.13 28.3,7.49 24.45,31.78 6.21,48.19 -46.35,41.7 -38.65,45.33 -59.75,97.02 -9.22,22.59 -18.83,30.06 -29.37,49.82 10.48,13.64 38.92,29.61 35.43,72.9 -42.57,-6.47 -76.74,-10.14 -120.83,16.65 -7.31,4.45 -10.33,7.69 -16.26,11.52 -31.75,20.49 -21.72,-55.36 -12.7,-70.78zm-1.34 134.51l22 41.4 -36.66 0 -8.86 -17.87 -16.35 17.87 -38.95 0 41.7 -42.62 -21.69 -40.93 36.2 0 8.86 17.71 16.5 -17.71 37.73 0 -40.48 42.15zm43.51 -42.15l34.36 0 -16.65 83.55 -34.36 0 16.65 -83.55zm20.92 -6.73c-5.9,0 -10.64,-1.55 -14.2,-4.65 -3.57,-3.11 -5.35,-7.01 -5.35,-11.69 0,-5.4 2.04,-9.88 6.11,-13.44 4.07,-3.57 9.37,-5.35 15.89,-5.35 5.9,0 10.64,1.45 14.2,4.36 3.57,2.9 5.35,6.69 5.35,11.38 0,5.8 -2.01,10.48 -6.03,14.05 -4.03,3.56 -9.35,5.34 -15.97,5.34zm26.25 6.73l34.36 0 -16.65 83.55 -34.36 0 16.65 -83.55zm20.92 -6.73c-5.9,0 -10.64,-1.55 -14.2,-4.65 -3.57,-3.11 -5.35,-7.01 -5.35,-11.69 0,-5.4 2.04,-9.88 6.11,-13.44 4.07,-3.57 9.37,-5.35 15.89,-5.35 5.9,0 10.64,1.45 14.2,4.36 3.57,2.9 5.35,6.69 5.35,11.38 0,5.8 -2.01,10.48 -6.03,14.05 -4.03,3.56 -9.35,5.34 -15.97,5.34zm79.86 5.2c5.7,0 11.2,1.53 16.5,4.58 5.29,3.06 9.6,7.51 12.91,13.37 3.31,5.85 4.96,12.75 4.96,20.69 0,8.97 -2.01,17.11 -6.03,24.44 -4.03,7.34 -9.45,13.09 -16.27,17.26 -6.82,4.18 -14.21,6.27 -22.15,6.27 -12.32,0 -20.72,-4.18 -25.2,-12.53l-2.14 11 -32.84 0 22.6 -113.34 34.52 0 -7.02 35.44c5.7,-4.79 12.42,-7.18 20.16,-7.18zm-15.73 59.42c4.48,0 8.12,-1.73 10.92,-5.2 2.8,-3.46 4.2,-8.09 4.2,-13.9 0,-3.97 -1.09,-7.15 -3.28,-9.54 -2.19,-2.4 -5.22,-3.59 -9.09,-3.59 -4.48,0 -8.12,1.73 -10.92,5.19 -2.8,3.46 -4.2,8.1 -4.2,13.9 0,3.97 1.09,7.16 3.28,9.55 2.19,2.39 5.22,3.59 9.09,3.59zm102.76 -59.42c8.05,0 15.25,1.42 21.62,4.28 6.36,2.85 11.38,7.07 15.04,12.67 3.67,5.6 5.5,12.38 5.5,20.32 0,1.22 -0.1,3.16 -0.3,5.8l-59.12 11c1.12,2.45 2.96,4.23 5.5,5.35 2.55,1.12 5.91,1.68 10.08,1.68 6.62,0 12.53,-1.94 17.72,-5.81l14.36 20.93c-10.18,6.93 -22.3,10.39 -36.35,10.39 -9.17,0 -17.24,-1.58 -24.22,-4.74 -6.97,-3.15 -12.37,-7.64 -16.19,-13.44 -3.82,-5.8 -5.73,-12.63 -5.73,-20.47 0,-9.16 2.17,-17.39 6.5,-24.67 4.32,-7.28 10.43,-12.98 18.33,-17.11 7.89,-4.12 16.98,-6.18 27.26,-6.18zm-1.83 23.52c-4.28,0 -7.69,1.25 -10.23,3.74 -2.55,2.5 -4.38,5.83 -5.5,10.01l27.8 -5.19c-0.51,-2.75 -1.86,-4.87 -4.05,-6.34 -2.19,-1.48 -4.86,-2.22 -8.02,-2.22zm89.03 -13.44c6.82,-6.72 16.6,-10.08 29.33,-10.08l-6.11 30.55c-2.55,-0.41 -5.04,-0.61 -7.49,-0.61 -5.9,0 -10.56,1.3 -13.97,3.89 -3.41,2.6 -5.73,6.8 -6.95,12.6l-7.79 38.65 -34.52 0 16.65 -83.55 32.53 0 -1.68 8.55z"/>
   </clipPath>
 </defs>
 <g id="Capa_x0020_1">
  <metadata id="CorelCorpID_0Corel-Layer"/>
  <path class="fil0" d="M140.39 305.93c-28.18,-27.88 -46.5,-39.22 -71.19,-89.11 -58.76,-118.78 -11.18,-197.17 70.09,-72.83 29.22,44.69 32.91,70.18 44.14,124.24l18.67 -5.06c-4.26,-44.07 2.65,-97.61 19,-125.43 13.46,-22.87 72.04,-68.9 116.56,-57.13 28.3,7.49 24.45,31.78 6.21,48.19 -46.35,41.7 -38.65,45.33 -59.75,97.02 -9.22,22.59 -18.83,30.06 -29.37,49.82 10.48,13.64 38.92,29.61 35.43,72.9 -42.57,-6.47 -76.74,-10.14 -120.83,16.65 -7.31,4.45 -10.33,7.69 -16.26,11.52 -31.75,20.49 -21.72,-55.36 -12.7,-70.78zm-1.34 134.51l22 41.4 -36.66 0 -8.86 -17.87 -16.35 17.87 -38.95 0 41.7 -42.62 -21.69 -40.93 36.2 0 8.86 17.71 16.5 -17.71 37.73 0 -40.48 42.15zm43.51 -42.15l34.36 0 -16.65 83.55 -34.36 0 16.65 -83.55zm20.92 -6.73c-5.9,0 -10.64,-1.55 -14.2,-4.65 -3.57,-3.11 -5.35,-7.01 -5.35,-11.69 0,-5.4 2.04,-9.88 6.11,-13.44 4.07,-3.57 9.37,-5.35 15.89,-5.35 5.9,0 10.64,1.45 14.2,4.36 3.57,2.9 5.35,6.69 5.35,11.38 0,5.8 -2.01,10.48 -6.03,14.05 -4.03,3.56 -9.35,5.34 -15.97,5.34zm26.25 6.73l34.36 0 -16.65 83.55 -34.36 0 16.65 -83.55zm20.92 -6.73c-5.9,0 -10.64,-1.55 -14.2,-4.65 -3.57,-3.11 -5.35,-7.01 -5.35,-11.69 0,-5.4 2.04,-9.88 6.11,-13.44 4.07,-3.57 9.37,-5.35 15.89,-5.35 5.9,0 10.64,1.45 14.2,4.36 3.57,2.9 5.35,6.69 5.35,11.38 0,5.8 -2.01,10.48 -6.03,14.05 -4.03,3.56 -9.35,5.34 -15.97,5.34zm79.86 5.2c5.7,0 11.2,1.53 16.5,4.58 5.29,3.06 9.6,7.51 12.91,13.37 3.31,5.85 4.96,12.75 4.96,20.69 0,8.97 -2.01,17.11 -6.03,24.44 -4.03,7.34 -9.45,13.09 -16.27,17.26 -6.82,4.18 -14.21,6.27 -22.15,6.27 -12.32,0 -20.72,-4.18 -25.2,-12.53l-2.14 11 -32.84 0 22.6 -113.34 34.52 0 -7.02 35.44c5.7,-4.79 12.42,-7.18 20.16,-7.18zm-15.73 59.42c4.48,0 8.12,-1.73 10.92,-5.2 2.8,-3.46 4.2,-8.09 4.2,-13.9 0,-3.97 -1.09,-7.15 -3.28,-9.54 -2.19,-2.4 -5.22,-3.59 -9.09,-3.59 -4.48,0 -8.12,1.73 -10.92,5.19 -2.8,3.46 -4.2,8.1 -4.2,13.9 0,3.97 1.09,7.16 3.28,9.55 2.19,2.39 5.22,3.59 9.09,3.59zm102.76 -59.42c8.05,0 15.25,1.42 21.62,4.28 6.36,2.85 11.38,7.07 15.04,12.67 3.67,5.6 5.5,12.38 5.5,20.32 0,1.22 -0.1,3.16 -0.3,5.8l-59.12 11c1.12,2.45 2.96,4.23 5.5,5.35 2.55,1.12 5.91,1.68 10.08,1.68 6.62,0 12.53,-1.94 17.72,-5.81l14.36 20.93c-10.18,6.93 -22.3,10.39 -36.35,10.39 -9.17,0 -17.24,-1.58 -24.22,-4.74 -6.97,-3.15 -12.37,-7.64 -16.19,-13.44 -3.82,-5.8 -5.73,-12.63 -5.73,-20.47 0,-9.16 2.17,-17.39 6.5,-24.67 4.32,-7.28 10.43,-12.98 18.33,-17.11 7.89,-4.12 16.98,-6.18 27.26,-6.18zm-1.83 23.52c-4.28,0 -7.69,1.25 -10.23,3.74 -2.55,2.5 -4.38,5.83 -5.5,10.01l27.8 -5.19c-0.51,-2.75 -1.86,-4.87 -4.05,-6.34 -2.19,-1.48 -4.86,-2.22 -8.02,-2.22zm89.03 -13.44c6.82,-6.72 16.6,-10.08 29.33,-10.08l-6.11 30.55c-2.55,-0.41 -5.04,-0.61 -7.49,-0.61 -5.9,0 -10.56,1.3 -13.97,3.89 -3.41,2.6 -5.73,6.8 -6.95,12.6l-7.79 38.65 -34.52 0 16.65 -83.55 32.53 0 -1.68 8.55z"/>
  <path id="1" class="fil1" d="M140.39 305.93c-28.18,-27.88 -46.5,-39.22 -71.19,-89.11 -58.76,-118.78 -11.18,-197.17 70.09,-72.83 29.22,44.69 32.91,70.18 44.14,124.24l18.67 -5.06c-4.26,-44.07 2.65,-97.61 19,-125.43 13.46,-22.87 72.04,-68.9 116.56,-57.13 28.3,7.49 24.45,31.78 6.21,48.19 -46.35,41.7 -38.65,45.33 -59.75,97.02 -9.22,22.59 -18.83,30.06 -29.37,49.82 10.48,13.64 38.92,29.61 35.43,72.9 -42.57,-6.47 -76.74,-10.14 -120.83,16.65 -7.31,4.45 -10.33,7.69 -16.26,11.52 -31.75,20.49 -21.72,-55.36 -12.7,-70.78zm-1.34 134.51l22 41.4 -36.66 0 -8.86 -17.87 -16.35 17.87 -38.95 0 41.7 -42.62 -21.69 -40.93 36.2 0 8.86 17.71 16.5 -17.71 37.73 0 -40.48 42.15zm43.51 -42.15l34.36 0 -16.65 83.55 -34.36 0 16.65 -83.55zm20.92 -6.73c-5.9,0 -10.64,-1.55 -14.2,-4.65 -3.57,-3.11 -5.35,-7.01 -5.35,-11.69 0,-5.4 2.04,-9.88 6.11,-13.44 4.07,-3.57 9.37,-5.35 15.89,-5.35 5.9,0 10.64,1.45 14.2,4.36 3.57,2.9 5.35,6.69 5.35,11.38 0,5.8 -2.01,10.48 -6.03,14.05 -4.03,3.56 -9.35,5.34 -15.97,5.34zm26.25 6.73l34.36 0 -16.65 83.55 -34.36 0 16.65 -83.55zm20.92 -6.73c-5.9,0 -10.64,-1.55 -14.2,-4.65 -3.57,-3.11 -5.35,-7.01 -5.35,-11.69 0,-5.4 2.04,-9.88 6.11,-13.44 4.07,-3.57 9.37,-5.35 15.89,-5.35 5.9,0 10.64,1.45 14.2,4.36 3.57,2.9 5.35,6.69 5.35,11.38 0,5.8 -2.01,10.48 -6.03,14.05 -4.03,3.56 -9.35,5.34 -15.97,5.34zm79.86 5.2c5.7,0 11.2,1.53 16.5,4.58 5.29,3.06 9.6,7.51 12.91,13.37 3.31,5.85 4.96,12.75 4.96,20.69 0,8.97 -2.01,17.11 -6.03,24.44 -4.03,7.34 -9.45,13.09 -16.27,17.26 -6.82,4.18 -14.21,6.27 -22.15,6.27 -12.32,0 -20.72,-4.18 -25.2,-12.53l-2.14 11 -32.84 0 22.6 -113.34 34.52 0 -7.02 35.44c5.7,-4.79 12.42,-7.18 20.16,-7.18zm-15.73 59.42c4.48,0 8.12,-1.73 10.92,-5.2 2.8,-3.46 4.2,-8.09 4.2,-13.9 0,-3.97 -1.09,-7.15 -3.28,-9.54 -2.19,-2.4 -5.22,-3.59 -9.09,-3.59 -4.48,0 -8.12,1.73 -10.92,5.19 -2.8,3.46 -4.2,8.1 -4.2,13.9 0,3.97 1.09,7.16 3.28,9.55 2.19,2.39 5.22,3.59 9.09,3.59zm102.76 -59.42c8.05,0 15.25,1.42 21.62,4.28 6.36,2.85 11.38,7.07 15.04,12.67 3.67,5.6 5.5,12.38 5.5,20.32 0,1.22 -0.1,3.16 -0.3,5.8l-59.12 11c1.12,2.45 2.96,4.23 5.5,5.35 2.55,1.12 5.91,1.68 10.08,1.68 6.62,0 12.53,-1.94 17.72,-5.81l14.36 20.93c-10.18,6.93 -22.3,10.39 -36.35,10.39 -9.17,0 -17.24,-1.58 -24.22,-4.74 -6.97,-3.15 -12.37,-7.64 -16.19,-13.44 -3.82,-5.8 -5.73,-12.63 -5.73,-20.47 0,-9.16 2.17,-17.39 6.5,-24.67 4.32,-7.28 10.43,-12.98 18.33,-17.11 7.89,-4.12 16.98,-6.18 27.26,-6.18zm-1.83 23.52c-4.28,0 -7.69,1.25 -10.23,3.74 -2.55,2.5 -4.38,5.83 -5.5,10.01l27.8 -5.19c-0.51,-2.75 -1.86,-4.87 -4.05,-6.34 -2.19,-1.48 -4.86,-2.22 -8.02,-2.22zm89.03 -13.44c6.82,-6.72 16.6,-10.08 29.33,-10.08l-6.11 30.55c-2.55,-0.41 -5.04,-0.61 -7.49,-0.61 -5.9,0 -10.56,1.3 -13.97,3.89 -3.41,2.6 -5.73,6.8 -6.95,12.6l-7.79 38.65 -34.52 0 16.65 -83.55 32.53 0 -1.68 8.55z"/>
  <g style="clip-path:url(#id0)">
   <g id="_1736311023456">
   </g>
  </g>
  <g style="clip-path:url(#id1)">
   <path id="2" class="fil0 str0" d="M43.04 78.71l491.03 404.66m0 -404.66l-491.03 404.66"/>
  </g>
  <polygon class="fil0" points="-0.01,-0.01 558.79,-0.01 558.79,558.79 -0.01,558.79 "/>
 </g>
</svg>
