<?xml version="1.0" encoding="UTF-8"?>
<!DOCTYPE svg PUBLIC "-//W3C//DTD SVG 1.1//EN" "http://www.w3.org/Graphics/SVG/1.1/DTD/svg11.dtd">
<!-- Creator: CorelDRAW 2017 -->
<svg xmlns="http://www.w3.org/2000/svg" xml:space="preserve" width="215.9mm" height="279.4mm" version="1.1" style="shape-rendering:geometricPrecision; text-rendering:geometricPrecision; image-rendering:optimizeQuality; fill-rule:evenodd; clip-rule:evenodd"
viewBox="0 0 21590 27940"
 xmlns:xlink="http://www.w3.org/1999/xlink">
 <defs>
  <style type="text/css">
   <![CDATA[
    .fil2 {fill:none}
    .fil4 {fill:#231F20}
    .fil10 {fill:#E21C2A}
    .fil6 {fill:#EB001B}
    .fil8 {fill:#F0A929}
    .fil7 {fill:#F79E1B}
    .fil11 {fill:#FC4C02}
    .fil5 {fill:#FF5F00}
    .fil9 {fill:white}
    .fil0 {fill:white;fill-opacity:0.000000}
    .fil1 {fill:url(#id7)}
    .fil3 {fill:url(#id8)}
   ]]>
  </style>
   <clipPath id="id0">
    <path d="M6736.22 14876.86c-16.54,0.09 -28.15,8.97 -28.25,21.66 -0.11,9.44 8.38,14.7 14.77,17.83 6.57,3.22 8.77,5.28 8.75,8.15 -0.05,4.4 -5.24,6.34 -10.1,6.41 -8.48,0.13 -13.4,-2.3 -17.32,-4.14l-3.05 14.36c3.93,1.82 11.21,3.4 18.75,3.48 17.73,0 29.31,-8.79 29.37,-22.42 0.07,-17.29 -23.79,-18.25 -23.63,-25.97 0.05,-2.36 2.28,-4.85 7.15,-5.49 2.42,-0.32 9.08,-0.56 16.63,2.93l2.96 -13.9c-4.01,-1.46 -9.14,-2.87 -15.53,-2.9l-0.5 0zm44.53 1.2c-3.24,0 -5.97,1.89 -7.18,4.8l-25.31 60.73 17.71 0 3.52 -9.8 21.63 0.01 2.05 9.79 15.59 0 -13.61 -65.53 -14.4 0zm2.47 17.7l5.11 24.61 -13.99 0 8.88 -24.61zm-96.7 -17.7l-13.96 65.53 16.87 0 13.95 -65.53 -16.86 0zm-24.96 0l-17.56 44.6 -7.1 -37.93c-0.83,-4.23 -4.12,-6.67 -7.78,-6.67l-28.7 0 -0.4 1.9c5.89,1.28 12.59,3.36 16.64,5.57 2.48,1.36 3.19,2.54 4.01,5.76l13.45 52.3 17.83 0 27.33 -65.53 -17.72 0z"/>
   </clipPath>
   <clipPath id="id1">
    <path d="M6736.22 14876.86c-16.54,0.09 -28.15,8.97 -28.25,21.66 -0.11,9.44 8.38,14.7 14.77,17.83 6.57,3.22 8.77,5.28 8.75,8.15 -0.05,4.4 -5.24,6.34 -10.1,6.41 -8.48,0.13 -13.4,-2.3 -17.32,-4.14l-3.05 14.36c3.93,1.82 11.21,3.4 18.75,3.48 17.73,0 29.31,-8.79 29.37,-22.42 0.07,-17.29 -23.79,-18.25 -23.63,-25.97 0.05,-2.36 2.28,-4.85 7.15,-5.49 2.42,-0.32 9.08,-0.56 16.63,2.93l2.96 -13.9c-4.01,-1.46 -9.14,-2.87 -15.53,-2.9l-0.5 0zm44.53 1.2c-3.24,0 -5.97,1.89 -7.18,4.8l-25.31 60.73 17.71 0 3.52 -9.8 21.63 0.01 2.05 9.79 15.59 0 -13.61 -65.53 -14.4 0zm2.47 17.7l5.11 24.61 -13.99 0 8.88 -24.61zm-96.7 -17.7l-13.96 65.53 16.87 0 13.95 -65.53 -16.86 0zm-24.96 0l-17.56 44.6 -7.1 -37.93c-0.83,-4.23 -4.12,-6.67 -7.78,-6.67l-28.7 0 -0.4 1.9c5.89,1.28 12.59,3.36 16.64,5.57 2.48,1.36 3.19,2.54 4.01,5.76l13.45 52.3 17.83 0 27.33 -65.53 -17.72 0z"/>
   </clipPath>
   <clipPath id="id2">
    <path d="M6736.22 14876.86c-16.54,0.09 -28.15,8.97 -28.25,21.66 -0.11,9.44 8.38,14.7 14.77,17.83 6.57,3.22 8.77,5.28 8.75,8.15 -0.05,4.4 -5.24,6.34 -10.1,6.41 -8.48,0.13 -13.4,-2.3 -17.32,-4.14l-3.05 14.36c3.93,1.82 11.21,3.4 18.75,3.48 17.73,0 29.31,-8.79 29.37,-22.42 0.07,-17.29 -23.79,-18.25 -23.63,-25.97 0.05,-2.36 2.28,-4.85 7.15,-5.49 2.42,-0.32 9.08,-0.56 16.63,2.93l2.96 -13.9c-4.01,-1.46 -9.14,-2.87 -15.53,-2.9l-0.5 0zm44.53 1.2c-3.24,0 -5.97,1.89 -7.18,4.8l-25.31 60.73 17.71 0 3.52 -9.8 21.63 0.01 2.05 9.79 15.59 0 -13.61 -65.53 -14.4 0zm2.47 17.7l5.11 24.61 -13.99 0 8.88 -24.61zm-96.7 -17.7l-13.96 65.53 16.87 0 13.95 -65.53 -16.86 0zm-24.96 0l-17.56 44.6 -7.1 -37.93c-0.83,-4.23 -4.12,-6.67 -7.78,-6.67l-28.7 0 -0.4 1.9c5.89,1.28 12.59,3.36 16.64,5.57 2.48,1.36 3.19,2.54 4.01,5.76l13.45 52.3 17.83 0 27.33 -65.53 -17.72 0z"/>
   </clipPath>
   <clipPath id="id3">
    <path d="M6736.22 14876.86c-16.54,0.09 -28.15,8.97 -28.25,21.66 -0.11,9.44 8.38,14.7 14.77,17.83 6.57,3.22 8.77,5.28 8.75,8.15 -0.05,4.4 -5.24,6.34 -10.1,6.41 -8.48,0.13 -13.4,-2.3 -17.32,-4.14l-3.05 14.36c3.93,1.82 11.21,3.4 18.75,3.48 17.73,0 29.31,-8.79 29.37,-22.42 0.07,-17.29 -23.79,-18.25 -23.63,-25.97 0.05,-2.36 2.28,-4.85 7.15,-5.49 2.42,-0.32 9.08,-0.56 16.63,2.93l2.96 -13.9c-4.01,-1.46 -9.14,-2.87 -15.53,-2.9l-0.5 0zm44.53 1.2c-3.24,0 -5.97,1.89 -7.18,4.8l-25.31 60.73 17.71 0 3.52 -9.8 21.63 0.01 2.05 9.79 15.59 0 -13.61 -65.53 -14.4 0zm2.47 17.7l5.11 24.61 -13.99 0 8.88 -24.61zm-96.7 -17.7l-13.96 65.53 16.87 0 13.95 -65.53 -16.86 0zm-24.96 0l-17.56 44.6 -7.1 -37.93c-0.83,-4.23 -4.12,-6.67 -7.78,-6.67l-28.7 0 -0.4 1.9c5.89,1.28 12.59,3.36 16.64,5.57 2.48,1.36 3.19,2.54 4.01,5.76l13.45 52.3 17.83 0 27.33 -65.53 -17.72 0z"/>
   </clipPath>
   <clipPath id="id4">
    <rect x="7220.77" y="14840.99" width="139.49" height="139.49"/>
   </clipPath>
   <clipPath id="id5">
    <rect x="7756.95" y="14844.36" width="483.89" height="126.05"/>
   </clipPath>
   <clipPath id="id6">
    <rect x="8548.12" y="14840.14" width="317.06" height="132.15"/>
   </clipPath>
  <linearGradient id="id7" gradientUnits="userSpaceOnUse" x1="6600.02" y1="14910.74" x2="6808.76" y2="14910.74">
   <stop offset="0" style="stop-opacity:1; stop-color:#231F5D"/>
   <stop offset="1" style="stop-opacity:1; stop-color:#024DA1"/>
  </linearGradient>
  <linearGradient id="id8" gradientUnits="userSpaceOnUse" xlink:href="#id7" x1="6773.48" y1="14908.53" x2="6786.71" y2="14908.53">
  </linearGradient>
 </defs>
 <g id="Capa_x0020_1">
  <metadata id="CorelCorpID_0Corel-Layer"/>
  <g style="clip-path:url(#id0)">
   <polygon class="fil0" points="6600.02,14876.86 6808.76,14876.86 6808.76,14944.61 6600.02,14944.61 "/>
  </g>
  <g style="clip-path:url(#id1)">
   <g id="_2208084106480">
    <path id="1" class="fil1" d="M6736.72 14876.86l0.57 0c5.73,0.11 10.43,1.31 14.2,2.63l0.76 0.28 -2.96 13.89 -0.37 -0.17c-7.15,-3.21 -13.45,-3.09 -16.01,-2.8l-0.25 0.03 -0.3 0.05c-4.57,0.68 -6.71,3.04 -6.85,5.3l-0.01 0.14 0 0.24c0.32,7.43 23.24,8.6 23.63,25.23l0.01 0.52 -0.01 0.39c-0.28,13.27 -11.58,21.85 -28.84,22.02l-0.52 0.01 -0.48 -0.01c-7.21,-0.14 -14.12,-1.64 -18.02,-3.36l-0.26 -0.12 3.06 -14.36 1.37 0.64c3.63,1.69 8.23,3.54 15.49,3.51l0.46 0 0.25 -0.01c4.7,-0.13 9.63,-2.02 9.84,-6.2l0.01 -0.21 0 -0.15c-0.05,-2.69 -2.13,-4.7 -8.08,-7.66l-1.38 -0.69c-6.21,-3.13 -13.97,-8.26 -14.06,-17.15l0 -0.33 0.01 -0.38c0.32,-12.36 11.63,-21.01 27.75,-21.28l0.49 0 0.5 0zm-33.34 1.2l-13.95 65.53 -16.87 0 13.95 -65.53 16.87 0zm-74.26 0l0.22 0c3.49,0.1 6.62,2.43 7.51,6.42l0.05 0.26 7.1 37.92 17.56 -44.6 17.72 0 -27.33 65.53 -17.83 0 -13.52 -52.57c-0.76,-2.93 -1.48,-4.1 -3.72,-5.37l-0.22 -0.12 -0.37 -0.2c-3.96,-2.07 -10.15,-4.01 -15.73,-5.26l-0.54 -0.12 0.4 -1.9 28.7 0.01zm166.03 0l13.62 65.53 -15.6 0 -2.04 -9.8 -21.64 0 -3.52 9.8 -17.7 0 25.3 -60.74 0.1 -0.22c1.22,-2.71 3.79,-4.48 6.84,-4.57l0.24 -0.01 14.4 0.01z"/>
   </g>
  </g>
  <path class="fil2" d="M6736.22 14876.86c-16.54,0.09 -28.15,8.97 -28.25,21.66 -0.11,9.44 8.38,14.7 14.77,17.83 6.57,3.22 8.77,5.28 8.75,8.15 -0.05,4.4 -5.24,6.34 -10.1,6.41 -8.48,0.13 -13.4,-2.3 -17.32,-4.14l-3.05 14.36c3.93,1.82 11.21,3.4 18.75,3.48 17.73,0 29.31,-8.79 29.37,-22.42 0.07,-17.29 -23.79,-18.25 -23.63,-25.97 0.05,-2.36 2.28,-4.85 7.15,-5.49 2.42,-0.32 9.08,-0.56 16.63,2.93l2.96 -13.9c-4.01,-1.46 -9.14,-2.87 -15.53,-2.9l-0.5 0zm44.53 1.2c-3.24,0 -5.97,1.89 -7.18,4.8l-25.31 60.73 17.71 0 3.52 -9.8 21.63 0.01 2.05 9.79 15.59 0 -13.61 -65.53 -14.4 0zm2.47 17.7l5.11 24.61 -13.99 0 8.88 -24.61zm-96.7 -17.7l-13.96 65.53 16.87 0 13.95 -65.53 -16.86 0zm-24.96 0l-17.56 44.6 -7.1 -37.93c-0.83,-4.23 -4.12,-6.67 -7.78,-6.67l-28.7 0 -0.4 1.9c5.89,1.28 12.59,3.36 16.64,5.57 2.48,1.36 3.19,2.54 4.01,5.76l13.45 52.3 17.83 0 27.33 -65.53 -17.72 0z"/>
  <g style="clip-path:url(#id2)">
   <polygon class="fil0" points="6600.02,14876.86 6808.76,14876.86 6808.76,14944.61 6600.02,14944.61 "/>
  </g>
  <g style="clip-path:url(#id3)">
   <g id="_2208084105744">
    <polygon id="1" class="fil3" points="6781.88,14896.01 6786.71,14921.04 6773.48,14921.04 "/>
   </g>
  </g>
  <path class="fil2" d="M6736.22 14876.86c-16.54,0.09 -28.15,8.97 -28.25,21.66 -0.11,9.44 8.38,14.7 14.77,17.83 6.57,3.22 8.77,5.28 8.75,8.15 -0.05,4.4 -5.24,6.34 -10.1,6.41 -8.48,0.13 -13.4,-2.3 -17.32,-4.14l-3.05 14.36c3.93,1.82 11.21,3.4 18.75,3.48 17.73,0 29.31,-8.79 29.37,-22.42 0.07,-17.29 -23.79,-18.25 -23.63,-25.97 0.05,-2.36 2.28,-4.85 7.15,-5.49 2.42,-0.32 9.08,-0.56 16.63,2.93l2.96 -13.9c-4.01,-1.46 -9.14,-2.87 -15.53,-2.9l-0.5 0zm44.53 1.2c-3.24,0 -5.97,1.89 -7.18,4.8l-25.31 60.73 17.71 0 3.52 -9.8 21.63 0.01 2.05 9.79 15.59 0 -13.61 -65.53 -14.4 0zm2.47 17.7l5.11 24.61 -13.99 0 8.88 -24.61zm-96.7 -17.7l-13.96 65.53 16.87 0 13.95 -65.53 -16.86 0zm-24.96 0l-17.56 44.6 -7.1 -37.93c-0.83,-4.23 -4.12,-6.67 -7.78,-6.67l-28.7 0 -0.4 1.9c5.89,1.28 12.59,3.36 16.64,5.57 2.48,1.36 3.19,2.54 4.01,5.76l13.45 52.3 17.83 0 27.33 -65.53 -17.72 0z"/>
  <path class="fil4" d="M6941.28 14979.35l0 -9.2c0.11,-1.57 -0.46,-3.1 -1.57,-4.22 -1.11,-1.11 -2.65,-1.7 -4.22,-1.6 -2.07,-0.14 -4.06,0.86 -5.17,2.6 -1.03,-1.69 -2.89,-2.69 -4.87,-2.6 -1.72,-0.09 -3.36,0.74 -4.31,2.17l0 -1.8 -3.21 -0.01 0 14.66 3.24 0 0 -8.07c-0.14,-1.01 0.18,-2.04 0.88,-2.79 0.7,-0.75 1.69,-1.16 2.72,-1.1 2.13,0 3.2,1.38 3.2,3.86l0 8.16 3.24 0 0 -8.13c-0.14,-1.01 0.19,-2.03 0.89,-2.78 0.69,-0.75 1.69,-1.16 2.71,-1.11 2.19,0 3.24,1.38 3.24,3.86l0 8.16 3.23 -0.06zm47.85 -14.66l-5.27 0 0 -4.44 -3.24 0 0 4.44 -2.92 0 0 2.92 2.99 0 0 6.74c0,3.4 1.32,5.42 5.11,5.42 1.42,0.01 2.8,-0.38 4,-1.13l-0.92 -2.73c-0.86,0.51 -1.83,0.79 -2.83,0.83 -1.54,0 -2.13,-0.98 -2.13,-2.46l0 -6.68 5.24 0.01 -0.03 -2.92zm27.31 -0.37c-1.59,-0.04 -3.08,0.78 -3.88,2.15l0 -1.78 -3.17 0 0 14.66 3.2 0 0 -8.22c0,-2.42 1.05,-3.77 3.08,-3.77 0.69,-0.01 1.37,0.12 2.01,0.37l0.98 -3.07c-0.73,-0.26 -1.5,-0.39 -2.27,-0.4l0.05 0.06zm-41.3 1.54c-1.81,-1.08 -3.9,-1.61 -6,-1.54 -3.73,0 -6.16,1.78 -6.16,4.69 0,2.4 1.78,3.87 5.08,4.33l1.54 0.21c1.75,0.25 2.59,0.71 2.59,1.54 0,1.13 -1.17,1.77 -3.36,1.77 -1.76,0.06 -3.48,-0.49 -4.9,-1.53l-1.54 2.48c1.87,1.3 4.1,1.97 6.38,1.9 4.25,0 6.71,-1.99 6.71,-4.78 0,-2.79 -1.94,-3.92 -5.14,-4.38l-1.54 -0.22c-1.38,-0.18 -2.49,-0.46 -2.49,-1.44 0,-0.98 1.05,-1.71 2.8,-1.71 1.62,0.02 3.21,0.45 4.62,1.26l1.41 -2.58zm85.79 -1.54c-1.59,-0.04 -3.08,0.78 -3.88,2.15l0 -1.78 -3.17 0 0 14.66 3.2 0 0 -8.22c0,-2.42 1.05,-3.77 3.08,-3.77 0.69,-0.01 1.37,0.12 2,0.37l0.99 -3.07c-0.73,-0.26 -1.5,-0.39 -2.28,-0.4l0.06 0.06zm-41.27 7.67c-0.07,2.08 0.73,4.1 2.23,5.56 1.49,1.46 3.54,2.22 5.63,2.1 1.92,0.1 3.81,-0.52 5.29,-1.74l-1.54 -2.58c-1.1,0.84 -2.45,1.3 -3.85,1.32 -2.45,-0.2 -4.34,-2.24 -4.34,-4.69 0,-2.45 1.89,-4.49 4.34,-4.69 1.4,0.01 2.75,0.47 3.85,1.31l1.54 -2.57c-1.48,-1.22 -3.37,-1.85 -5.29,-1.75 -2.1,-0.12 -4.14,0.65 -5.63,2.11 -1.5,1.46 -2.3,3.47 -2.23,5.56l0 0.06zm30 0l0 -7.3 -3.2 0 0 1.78c-1.11,-1.41 -2.83,-2.21 -4.62,-2.14 -4.25,0 -7.7,3.43 -7.7,7.66 0,4.23 3.45,7.67 7.7,7.67 1.8,0.06 3.51,-0.74 4.62,-2.15l0 1.78 3.2 -0.01 0 -7.29zm-11.92 0c0.14,-2.41 2.19,-4.26 4.61,-4.17 2.42,0.09 4.32,2.09 4.28,4.5 -0.04,2.41 -2,4.35 -4.42,4.36 -1.24,0.01 -2.42,-0.48 -3.27,-1.37 -0.85,-0.89 -1.28,-2.1 -1.2,-3.32l0 0zm-38.65 -7.67c-4.25,0.06 -7.65,3.54 -7.59,7.77 0.06,4.24 3.55,7.62 7.8,7.56 2.22,0.11 4.4,-0.6 6.12,-1.99l-1.54 -2.36c-1.22,0.97 -2.72,1.51 -4.28,1.53 -2.2,0.19 -4.15,-1.4 -4.41,-3.58l10.94 0c0,-0.4 0,-0.8 0,-1.23 0,-4.6 -2.87,-7.67 -6.99,-7.67l-0.05 -0.03zm0 2.86c0.97,-0.03 1.9,0.34 2.6,1.01 0.7,0.66 1.1,1.58 1.12,2.54l-7.69 0c0.11,-2.05 1.85,-3.62 3.91,-3.55l0.06 0zm80.24 4.84l0 -13.21 -3.08 0 0 7.66c-1.1,-1.41 -2.82,-2.21 -4.61,-2.14 -4.26,0 -7.7,3.43 -7.7,7.66 0,4.23 3.44,7.67 7.7,7.67 1.79,0.06 3.51,-0.74 4.61,-2.15l0 1.78 3.08 -0.01 0 -7.26zm5.35 5.2c0.2,-0.01 0.4,0.03 0.58,0.1 0.18,0.08 0.34,0.18 0.48,0.31 0.14,0.13 0.25,0.29 0.33,0.46 0.15,0.36 0.15,0.77 0,1.13 -0.08,0.18 -0.19,0.33 -0.33,0.47 -0.14,0.13 -0.3,0.23 -0.48,0.3 -0.18,0.08 -0.38,0.13 -0.58,0.13 -0.6,-0.01 -1.14,-0.36 -1.39,-0.89 -0.15,-0.37 -0.15,-0.78 0,-1.14 0.08,-0.17 0.19,-0.33 0.33,-0.46 0.14,-0.13 0.3,-0.23 0.48,-0.3 0.2,-0.08 0.41,-0.12 0.63,-0.11l-0.05 0zm0 2.59c0.15,0 0.3,-0.04 0.45,-0.1 0.13,-0.06 0.25,-0.14 0.35,-0.24 0.4,-0.44 0.4,-1.1 0,-1.53 -0.1,-0.11 -0.22,-0.19 -0.35,-0.25 -0.15,-0.06 -0.3,-0.09 -0.45,-0.09 -0.16,0 -0.31,0.03 -0.45,0.09 -0.14,0.06 -0.26,0.14 -0.37,0.25 -0.4,0.43 -0.4,1.09 0,1.53 0.11,0.11 0.23,0.19 0.37,0.24 0.16,0.07 0.33,0.1 0.49,0.1l-0.04 0zm0.09 -1.83c0.14,0 0.29,0.04 0.4,0.13 0.1,0.08 0.15,0.2 0.14,0.32 0,0.1 -0.03,0.2 -0.11,0.27 -0.09,0.09 -0.2,0.13 -0.32,0.14l0.44 0.51 -0.35 0 -0.41 -0.51 -0.14 0 0 0.51 -0.3 0 0 -1.35 0.65 -0.02zm-0.34 0.26l0 0.37 0.34 0c0.06,0.02 0.12,0.02 0.18,0 0.03,-0.04 0.03,-0.09 0,-0.14 0.03,-0.04 0.03,-0.09 0,-0.13 -0.06,-0.02 -0.12,-0.02 -0.18,0l-0.34 -0.1zm-16.94 -6.22c0.14,-2.41 2.19,-4.26 4.61,-4.17 2.42,0.1 4.32,2.09 4.28,4.5 -0.03,2.41 -2,4.35 -4.42,4.36 -1.23,0.02 -2.42,-0.48 -3.27,-1.37 -0.85,-0.89 -1.28,-2.1 -1.2,-3.32l0 0zm-108.15 0l0 -7.33 -3.2 0 0 1.78c-1.1,-1.41 -2.82,-2.21 -4.62,-2.14 -4.25,0 -7.7,3.43 -7.7,7.66 0,4.23 3.45,7.67 7.7,7.67 1.8,0.06 3.52,-0.74 4.62,-2.15l0 1.78 3.2 -0.01 0 -7.26zm-11.91 0c0.14,-2.41 2.18,-4.26 4.6,-4.17 2.42,0.1 4.33,2.09 4.29,4.5 -0.04,2.41 -2.01,4.35 -4.43,4.36 -1.24,0.02 -2.43,-0.47 -3.28,-1.36 -0.86,-0.89 -1.3,-2.1 -1.22,-3.33l0.04 0z"/>
  <polygon class="fil5" points="6974.08,14853.02 7022.59,14853.02 7022.59,14939.8 6974.08,14939.8 "/>
  <path class="fil6" d="M6977.16 14896.42c-0.02,-16.94 7.79,-32.94 21.17,-43.4 -22.73,-17.78 -55.37,-15.19 -74.98,5.95 -19.61,21.14 -19.61,53.74 0,74.88 19.61,21.14 52.25,23.73 74.98,5.95 -13.37,-10.46 -21.18,-26.46 -21.17,-43.39l0 0.01z"/>
  <path class="fil7" d="M7088.03 14896.42c0,21.13 -12.12,40.4 -31.21,49.63 -19.09,9.23 -41.8,6.81 -58.49,-6.25 13.38,-10.46 21.19,-26.46 21.19,-43.39 0,-16.93 -7.81,-32.93 -21.19,-43.39 16.69,-13.06 39.4,-15.49 58.49,-6.25 19.09,9.23 31.21,28.5 31.21,49.63l0 0.02z"/>
  <path class="fil7" d="M7083.14 14934.76l0 -5.23 0.98 0.01 0 -1.08 -2.49 -0.01 0 1.08 1.07 0.01 0 5.22 0.44 0zm4.84 0l0 -6.31 -0.75 0 -0.89 4.51 -0.88 -4.51 -0.67 0 0 6.31 0.55 0 0 -4.73 0.82 4.1 0.56 0 0.82 -4.1 0 4.78 0.44 -0.05z"/>
  <g style="clip-path:url(#id4)">
   <image x="7220.77" y="14841" width="139.48" height="139.48" xlink:href="14756-pagos-aceptados-314469b8-fbcc-455e-9c58-7678b19b73cb_Images\14756-pagos-aceptados-314469b8-fbcc-455e-9c58-7678b19b73cb_ImgID1.png"/>
  </g>
  <path class="fil8" d="M7471.93 14865.13c0,-3.53 2.88,-6.41 6.41,-6.41l193.02 0c3.53,0 6.41,2.88 6.41,6.41l0 82.05c0,3.53 -2.88,6.41 -6.41,6.41l-193.02 0c-3.53,0 -6.41,-2.89 -6.41,-6.41l0 -82.05z"/>
  <polygon class="fil9" points="7471.93,14868.03 7677.77,14868.03 7677.77,14944.27 7471.93,14944.27 "/>
  <path class="fil10" d="M7646.37 14887.83c-9.41,0 -17.09,7.68 -17.09,17.1 0,9.41 7.68,17.09 17.09,17.09 9.42,0 17.1,-7.68 17.1,-17.09 0,-9.42 -7.68,-17.1 -17.1,-17.1z"/>
  <path class="fil10" d="M7505.47 14887.83c-9.42,0 -17.1,7.68 -17.1,17.1 0,9.41 7.68,17.09 17.1,17.09 9.42,0 17.1,-7.68 17.1,-17.09 0,-9.42 -7.68,-17.1 -17.1,-17.1z"/>
  <path class="fil10" d="M7645.03 14872.79c-15.82,-0.37 -23.26,9.78 -34.06,22.3l-10.19 11.8 16.13 19.31c3.85,5.93 -3.49,11.82 -8.04,6.39l-14.91 -17.79 -14.53 16.85c-4.63,5.36 -11.88,-0.63 -7.96,-6.51l15.78 -18.34 -10.34 -12.33 6.65 -8.23 10.51 12.62 9.06 -10.54c4.45,-5.16 8.98,-12.01 14.86,-15.54l-146.06 0.01 0 66.73 34.15 0c15.83,0 23.01,-9.47 33.51,-22.23l9.92 -12.04 -16.58 -18.93c-3.97,-5.84 3.22,-11.89 7.9,-6.57l15.31 17.44 14.14 -17.18c4.51,-5.47 11.89,0.36 8.1,6.32l-15.34 18.71 10.61 12.09 -6.69 7.92 -10.56 -11.92 -8.82 10.74c-4.32,5.27 -8.7,11.99 -14.5,15.65l144.69 0 0 -66.73 -32.74 0zm-112.55 32.14c0,14.87 -12.13,27.01 -27.01,27.01 -14.88,0 -27.01,-12.14 -27.01,-27.01 0,-14.88 12.13,-27.01 27.01,-27.01 14.88,0 27.01,12.13 27.01,27.01zm113.89 27.01c-14.87,0 -27.01,-12.14 -27.01,-27.01 0,-14.88 12.14,-27.01 27.01,-27.01 14.88,0 27.01,12.13 27.01,27.01 0,14.87 -12.13,27.01 -27.01,27.01z"/>
  <path class="fil11" d="M8457.04 14858.31c-0.06,-13.19 -10.77,-23.87 -23.98,-23.87 -3.28,0 -6.5,0.62 -9.25,1.85l-87.39 37.11c-12.45,5.27 -21.21,17.61 -21.21,31.96l0 46.93c0,13.25 10.74,23.99 23.98,23.99 3.36,0 6.56,-0.7 9.46,-1.95l87.02 -36.94c12.54,-5.23 21.37,-17.62 21.37,-32.03l0 -47.05z"/>
  <path class="fil9" d="M8376.65 14924.2c-1.02,0 -1.84,-0.91 -1.84,-2.04l0 -43.17c0,-1.12 0.82,-2.04 1.84,-2.04 1.02,0 1.85,0.92 1.85,2.04l0 43.17c0,1.13 -0.83,2.04 -1.85,2.04z"/>
  <path class="fil9" d="M8392.69 14922.27l0 -33.75c0,-1.14 -0.83,-2.06 -1.85,-2.06 -1.02,0 -1.84,0.92 -1.84,2.06l0 33.75c0,1.15 0.82,2.07 1.84,2.07 1.02,0 1.85,-0.92 1.85,-2.07z"/>
  <path class="fil9" d="M8392.69 14878.85l0 -0.11c0,-0.99 -0.83,-1.79 -1.85,-1.79 -1.02,0 -1.84,0.8 -1.84,1.79l0 0.11c0,0.99 0.82,1.79 1.84,1.79 1.02,0 1.85,-0.8 1.85,-1.79z"/>
  <g>
   <path class="fil9" d="M8363.84 14919.65c0.81,-0.81 0.81,-2.12 0,-2.92 -0.82,-0.81 -2.14,-0.81 -2.95,0 -6.02,5.96 -15.8,5.96 -21.81,0 -6.02,-5.98 -6.02,-15.68 0,-21.65 2.91,-2.89 6.78,-4.48 10.9,-4.48 4.12,0 7.99,1.59 10.91,4.48 0.81,0.81 2.13,0.81 2.95,0 0.81,-0.81 0.81,-2.12 0,-2.93 -3.7,-3.67 -8.62,-5.69 -13.86,-5.69 -5.23,0 -10.15,2.02 -13.86,5.69 -7.64,7.58 -7.64,19.92 0,27.5 3.83,3.79 8.84,5.69 13.86,5.69 5.02,0 10.04,-1.9 13.86,-5.69l0 0zm0 0l0 0 0 0z"/>
  </g>
  <path class="fil9" d="M8407.33 14932.64l0 -26.78c0,-8.42 6.86,-15.27 15.3,-15.27 8.43,0 15.3,6.85 15.3,15.27 0,8.42 -6.87,15.27 -15.3,15.27 -4.87,0 -8.16,-1.86 -8.19,-1.87 -0.98,-0.58 -2.25,-0.25 -2.83,0.73 -0.57,0.99 -0.24,2.25 0.74,2.83 0.17,0.1 4.23,2.44 10.28,2.44 10.72,0 19.44,-8.71 19.44,-19.4 0,-10.7 -8.72,-19.4 -19.44,-19.4 -10.72,0 -19.44,8.7 -19.44,19.4l0 26.78c0,1.13 0.92,2.06 2.07,2.06 1.14,0 2.07,-0.93 2.07,-2.06z"/>
  <path class="fil11" d="M8456.68 14946.34c0,3.29 -2.67,5.96 -5.96,5.96 -3.29,0 -5.96,-2.67 -5.96,-5.96 0,-3.3 2.67,-5.96 5.96,-5.96 3.29,0 5.96,2.66 5.96,5.96zm-0.94 0c0,-2.8 -2.25,-5.09 -5.02,-5.09 -2.76,0 -5,2.29 -5,5.09 0,2.8 2.24,5.08 5,5.08 2.77,0 5.02,-2.28 5.02,-5.08zm-2.52 3.26l-1.05 0 -1.5 -2.67 -0.99 0 0 2.67 -0.9 0 0 -6.54 2.22 0c1.14,0 2.06,0.86 2.06,1.96 0,0.95 -0.59,1.55 -1.4,1.79l1.56 2.79zm-1.08 -4.58c0,-0.66 -0.51,-1.15 -1.24,-1.15l-1.22 0 0 2.29 1.22 0c0.73,0 1.24,-0.48 1.24,-1.14z"/>
  <g style="clip-path:url(#id5)">
   <image x="7756.95" y="14844.37" width="483.88" height="126.04" xlink:href="14756-pagos-aceptados-314469b8-fbcc-455e-9c58-7678b19b73cb_Images\14756-pagos-aceptados-314469b8-fbcc-455e-9c58-7678b19b73cb_ImgID2.png"/>
  </g>
  <g style="clip-path:url(#id6)">
   <image x="8548.12" y="14840.15" width="317.05" height="132.14" xlink:href="14756-pagos-aceptados-314469b8-fbcc-455e-9c58-7678b19b73cb_Images\14756-pagos-aceptados-314469b8-fbcc-455e-9c58-7678b19b73cb_ImgID3.png"/>
  </g>
 </g>
</svg>
