<?xml version="1.0" encoding="UTF-8"?>
<!DOCTYPE svg PUBLIC "-//W3C//DTD SVG 1.1//EN" "http://www.w3.org/Graphics/SVG/1.1/DTD/svg11.dtd">
<!-- Creator: CorelDRAW 2017 -->
<svg xmlns="http://www.w3.org/2000/svg" xml:space="preserve" width="215.9mm" height="279.4mm" version="1.1" style="shape-rendering:geometricPrecision; text-rendering:geometricPrecision; image-rendering:optimizeQuality; fill-rule:evenodd; clip-rule:evenodd"
viewBox="0 0 21590 27940"
 xmlns:xlink="http://www.w3.org/1999/xlink">
 <defs>
  <style type="text/css">
   <![CDATA[
    .fil2 {fill:none}
    .fil4 {fill:#231F20}
    .fil10 {fill:#E21C2A}
    .fil6 {fill:#EB001B}
    .fil8 {fill:#F0A929}
    .fil7 {fill:#F79E1B}
    .fil11 {fill:#FC4C02}
    .fil5 {fill:#FF5F00}
    .fil9 {fill:white}
    .fil0 {fill:white;fill-opacity:0.000000}
    .fil3 {fill:url(#id6)}
    .fil1 {fill:url(#id7)}
   ]]>
  </style>
   <clipPath id="id0">
    <path d="M7180.85 14685.17c-68.87,0.38 -117.25,37.37 -117.64,90.22 -0.46,39.32 34.88,61.22 61.52,74.29 27.36,13.38 36.54,21.96 36.44,33.92 -0.21,18.32 -21.84,26.4 -42.06,26.71 -35.32,0.55 -55.82,-9.59 -72.16,-17.24l-12.72 59.81c16.4,7.57 46.7,14.17 78.13,14.51 73.82,0 122.09,-36.63 122.32,-93.4 0.31,-72.02 -99.11,-76 -98.43,-108.19 0.23,-9.79 9.49,-20.19 29.8,-22.86 10.06,-1.31 37.82,-2.33 69.26,12.21l12.35 -57.88c-16.71,-6.09 -38.11,-11.95 -64.72,-12.1l-2.09 0zm185.51 4.99c-13.49,0 -24.87,7.88 -29.91,20.02l-105.43 252.94 73.78 -0.01 14.65 -40.79 90.12 0.01 8.5 40.79 64.98 -0.01 -56.72 -272.95 -59.97 0zm10.3 73.75l21.28 102.48 -58.27 0 36.99 -102.48zm-402.83 -73.75l-58.12 272.95 70.27 0 58.1 -272.95 -70.25 0zm-103.94 0l-73.13 185.77 -29.58 -157.95c-3.46,-17.64 -17.18,-27.82 -32.4,-27.82l-119.56 0 -1.66 7.91c24.54,5.37 52.42,14.01 69.31,23.23 10.34,5.64 13.29,10.57 16.69,23.98l56.02 217.83 74.28 0 113.82 -272.95 -73.79 0z"/>
   </clipPath>
   <clipPath id="id1">
    <path d="M7180.85 14685.17c-68.87,0.38 -117.25,37.37 -117.64,90.22 -0.46,39.32 34.88,61.22 61.52,74.29 27.36,13.38 36.54,21.96 36.44,33.92 -0.21,18.32 -21.84,26.4 -42.06,26.71 -35.32,0.55 -55.82,-9.59 -72.16,-17.24l-12.72 59.81c16.4,7.57 46.7,14.17 78.13,14.51 73.82,0 122.09,-36.63 122.32,-93.4 0.31,-72.02 -99.11,-76 -98.43,-108.19 0.23,-9.79 9.49,-20.19 29.8,-22.86 10.06,-1.31 37.82,-2.33 69.26,12.21l12.35 -57.88c-16.71,-6.09 -38.11,-11.95 -64.72,-12.1l-2.09 0zm185.51 4.99c-13.49,0 -24.87,7.88 -29.91,20.02l-105.43 252.94 73.78 -0.01 14.65 -40.79 90.12 0.01 8.5 40.79 64.98 -0.01 -56.72 -272.95 -59.97 0zm10.3 73.75l21.28 102.48 -58.27 0 36.99 -102.48zm-402.83 -73.75l-58.12 272.95 70.27 0 58.1 -272.95 -70.25 0zm-103.94 0l-73.13 185.77 -29.58 -157.95c-3.46,-17.64 -17.18,-27.82 -32.4,-27.82l-119.56 0 -1.66 7.91c24.54,5.37 52.42,14.01 69.31,23.23 10.34,5.64 13.29,10.57 16.69,23.98l56.02 217.83 74.28 0 113.82 -272.95 -73.79 0z"/>
   </clipPath>
   <clipPath id="id2">
    <path d="M7180.85 14685.17c-68.87,0.38 -117.25,37.37 -117.64,90.22 -0.46,39.32 34.88,61.22 61.52,74.29 27.36,13.38 36.54,21.96 36.44,33.92 -0.21,18.32 -21.84,26.4 -42.06,26.71 -35.32,0.55 -55.82,-9.59 -72.16,-17.24l-12.72 59.81c16.4,7.57 46.7,14.17 78.13,14.51 73.82,0 122.09,-36.63 122.32,-93.4 0.31,-72.02 -99.11,-76 -98.43,-108.19 0.23,-9.79 9.49,-20.19 29.8,-22.86 10.06,-1.31 37.82,-2.33 69.26,12.21l12.35 -57.88c-16.71,-6.09 -38.11,-11.95 -64.72,-12.1l-2.09 0zm185.51 4.99c-13.49,0 -24.87,7.88 -29.91,20.02l-105.43 252.94 73.78 -0.01 14.65 -40.79 90.12 0.01 8.5 40.79 64.98 -0.01 -56.72 -272.95 -59.97 0zm10.3 73.75l21.28 102.48 -58.27 0 36.99 -102.48zm-402.83 -73.75l-58.12 272.95 70.27 0 58.1 -272.95 -70.25 0zm-103.94 0l-73.13 185.77 -29.58 -157.95c-3.46,-17.64 -17.18,-27.82 -32.4,-27.82l-119.56 0 -1.66 7.91c24.54,5.37 52.42,14.01 69.31,23.23 10.34,5.64 13.29,10.57 16.69,23.98l56.02 217.83 74.28 0 113.82 -272.95 -73.79 0z"/>
   </clipPath>
   <clipPath id="id3">
    <path d="M7180.85 14685.17c-68.87,0.38 -117.25,37.37 -117.64,90.22 -0.46,39.32 34.88,61.22 61.52,74.29 27.36,13.38 36.54,21.96 36.44,33.92 -0.21,18.32 -21.84,26.4 -42.06,26.71 -35.32,0.55 -55.82,-9.59 -72.16,-17.24l-12.72 59.81c16.4,7.57 46.7,14.17 78.13,14.51 73.82,0 122.09,-36.63 122.32,-93.4 0.31,-72.02 -99.11,-76 -98.43,-108.19 0.23,-9.79 9.49,-20.19 29.8,-22.86 10.06,-1.31 37.82,-2.33 69.26,12.21l12.35 -57.88c-16.71,-6.09 -38.11,-11.95 -64.72,-12.1l-2.09 0zm185.51 4.99c-13.49,0 -24.87,7.88 -29.91,20.02l-105.43 252.94 73.78 -0.01 14.65 -40.79 90.12 0.01 8.5 40.79 64.98 -0.01 -56.72 -272.95 -59.97 0zm10.3 73.75l21.28 102.48 -58.27 0 36.99 -102.48zm-402.83 -73.75l-58.12 272.95 70.27 0 58.1 -272.95 -70.25 0zm-103.94 0l-73.13 185.77 -29.58 -157.95c-3.46,-17.64 -17.18,-27.82 -32.4,-27.82l-119.56 0 -1.66 7.91c24.54,5.37 52.42,14.01 69.31,23.23 10.34,5.64 13.29,10.57 16.69,23.98l56.02 217.83 74.28 0 113.82 -272.95 -73.79 0z"/>
   </clipPath>
   <clipPath id="id4">
    <rect x="9199.18" y="14535.76" width="581.04" height="581.03"/>
   </clipPath>
   <clipPath id="id5">
    <rect x="11432.57" y="14549.78" width="2015.6" height="525.06"/>
   </clipPath>
  <linearGradient id="id6" gradientUnits="userSpaceOnUse" x1="7336.09" y1="14817.1" x2="7391.2" y2="14817.1">
   <stop offset="0" style="stop-opacity:1; stop-color:#231F5D"/>
   <stop offset="1" style="stop-opacity:1; stop-color:#024DA1"/>
  </linearGradient>
  <linearGradient id="id7" gradientUnits="userSpaceOnUse" xlink:href="#id6" x1="6613.56" y1="14826.3" x2="7483.05" y2="14826.3">
  </linearGradient>
 </defs>
 <g id="Capa_x0020_1">
  <metadata id="CorelCorpID_0Corel-Layer"/>
  <g style="clip-path:url(#id0)">
   <polygon class="fil0" points="6613.56,14685.17 7483.05,14685.17 7483.05,14967.39 6613.56,14967.39 "/>
  </g>
  <g style="clip-path:url(#id1)">
   <g id="_2198992851152">
    <path id="1" class="fil1" d="M7182.94 14685.17l2.4 0.03c23.85,0.44 43.44,5.45 59.13,10.93l3.19 1.14 -12.35 57.88 -1.54 -0.7c-29.78,-13.35 -56.02,-12.85 -66.68,-11.64l-1.05 0.13 -1.23 0.17c-19.05,2.86 -27.98,12.68 -28.55,22.09l-0.03 0.6 0.01 0.96c1.28,31 96.79,35.83 98.4,105.11l0.02 2.12 -0.02 1.7c-1.17,55.24 -48.26,90.98 -120.11,91.69l-2.18 0.01 -2 -0.03c-30.03,-0.57 -58.79,-6.79 -75.06,-13.99l-1.07 -0.48 12.72 -59.81 5.71 2.67c15.13,6.99 34.3,14.74 64.51,14.59l1.95 -0.02 1 -0.02c19.59,-0.55 40.16,-8.4 41.03,-25.8l0.03 -0.89 0 -0.62c-0.21,-11.23 -8.9,-19.56 -33.67,-31.94l-5.7 -2.83c-25.9,-13.06 -58.22,-34.4 -58.59,-71.43l0 -1.4 0.03 -1.58c1.32,-51.48 48.48,-87.54 115.57,-88.62l2.04 -0.02 2.09 0zm-138.87 4.99l-58.1 272.95 -70.26 0 58.12 -272.95 70.24 0zm-309.29 0l0.91 0.01c14.56,0.39 27.56,10.12 31.27,26.76l0.22 1.05 29.58 157.95 73.13 -185.77 73.79 0 -113.82 272.95 -74.27 0 -56.31 -218.96c-3.18,-12.18 -6.17,-17.07 -15.51,-22.35l-0.89 -0.5 -1.57 -0.84c-16.48,-8.62 -42.28,-16.67 -65.51,-21.9l-2.24 -0.5 1.66 -7.91 119.56 0.01zm691.55 0l56.72 272.95 -64.98 0 -8.5 -40.79 -90.12 0.01 -14.65 40.79 -73.77 -0.01 105.43 -252.94 0.4 -0.93c5.09,-11.31 15.78,-18.7 28.47,-19.08l1.03 -0.02 59.97 0.02z"/>
   </g>
  </g>
  <path class="fil2" d="M7180.85 14685.17c-68.87,0.38 -117.25,37.37 -117.64,90.22 -0.46,39.32 34.88,61.22 61.52,74.29 27.36,13.38 36.54,21.96 36.44,33.92 -0.21,18.32 -21.84,26.4 -42.06,26.71 -35.32,0.55 -55.82,-9.59 -72.16,-17.24l-12.72 59.81c16.4,7.57 46.7,14.17 78.13,14.51 73.82,0 122.09,-36.63 122.32,-93.4 0.31,-72.02 -99.11,-76 -98.43,-108.19 0.23,-9.79 9.49,-20.19 29.8,-22.86 10.06,-1.31 37.82,-2.33 69.26,12.21l12.35 -57.88c-16.71,-6.09 -38.11,-11.95 -64.72,-12.1l-2.09 0zm185.51 4.99c-13.49,0 -24.87,7.88 -29.91,20.02l-105.43 252.94 73.78 -0.01 14.65 -40.79 90.12 0.01 8.5 40.79 64.98 -0.01 -56.72 -272.95 -59.97 0zm10.3 73.75l21.28 102.48 -58.27 0 36.99 -102.48zm-402.83 -73.75l-58.12 272.95 70.27 0 58.1 -272.95 -70.25 0zm-103.94 0l-73.13 185.77 -29.58 -157.95c-3.46,-17.64 -17.18,-27.82 -32.4,-27.82l-119.56 0 -1.66 7.91c24.54,5.37 52.42,14.01 69.31,23.23 10.34,5.64 13.29,10.57 16.69,23.98l56.02 217.83 74.28 0 113.82 -272.95 -73.79 0z"/>
  <g style="clip-path:url(#id2)">
   <polygon class="fil0" points="6613.56,14685.17 7483.05,14685.17 7483.05,14967.39 6613.56,14967.39 "/>
  </g>
  <g style="clip-path:url(#id3)">
   <g id="_2198992850000">
    <polygon id="1" class="fil3" points="7371.07,14764.93 7391.2,14869.22 7336.09,14869.22 "/>
   </g>
  </g>
  <path class="fil2" d="M7180.85 14685.17c-68.87,0.38 -117.25,37.37 -117.64,90.22 -0.46,39.32 34.88,61.22 61.52,74.29 27.36,13.38 36.54,21.96 36.44,33.92 -0.21,18.32 -21.84,26.4 -42.06,26.71 -35.32,0.55 -55.82,-9.59 -72.16,-17.24l-12.72 59.81c16.4,7.57 46.7,14.17 78.13,14.51 73.82,0 122.09,-36.63 122.32,-93.4 0.31,-72.02 -99.11,-76 -98.43,-108.19 0.23,-9.79 9.49,-20.19 29.8,-22.86 10.06,-1.31 37.82,-2.33 69.26,12.21l12.35 -57.88c-16.71,-6.09 -38.11,-11.95 -64.72,-12.1l-2.09 0zm185.51 4.99c-13.49,0 -24.87,7.88 -29.91,20.02l-105.43 252.94 73.78 -0.01 14.65 -40.79 90.12 0.01 8.5 40.79 64.98 -0.01 -56.72 -272.95 -59.97 0zm10.3 73.75l21.28 102.48 -58.27 0 36.99 -102.48zm-402.83 -73.75l-58.12 272.95 70.27 0 58.1 -272.95 -70.25 0zm-103.94 0l-73.13 185.77 -29.58 -157.95c-3.46,-17.64 -17.18,-27.82 -32.4,-27.82l-119.56 0 -1.66 7.91c24.54,5.37 52.42,14.01 69.31,23.23 10.34,5.64 13.29,10.57 16.69,23.98l56.02 217.83 74.28 0 113.82 -272.95 -73.79 0z"/>
  <path class="fil4" d="M8035.02 15112.07l0 -38.31c0.45,-6.52 -1.93,-12.92 -6.55,-17.56 -4.62,-4.64 -11.02,-7.09 -17.57,-6.7 -8.63,-0.56 -16.89,3.6 -21.55,10.85 -4.25,-7.04 -12.03,-11.21 -20.27,-10.85 -7.18,-0.36 -14.01,3.09 -17.96,9.07l0 -7.53 -13.34 -0.01 0 61.04 13.47 0 0 -33.59c-0.58,-4.23 0.77,-8.49 3.67,-11.63 2.9,-3.14 7.06,-4.82 11.34,-4.59 8.85,0 13.34,5.75 13.34,16.09l0 33.97 13.47 0 0 -33.84c-0.56,-4.22 0.8,-8.47 3.7,-11.6 2.9,-3.13 7.04,-4.82 11.31,-4.62 9.11,0 13.47,5.75 13.47,16.09l0 33.97 13.47 -0.25zm199.29 -61.04l-21.94 0 0 -18.52 -13.47 0 0 18.52 -12.18 0 0 12.13 12.44 0 0 28.09c0,14.17 5.52,22.6 21.3,22.6 5.9,0.02 11.68,-1.62 16.68,-4.73l-3.85 -11.37c-3.58,2.12 -7.64,3.31 -11.8,3.45 -6.41,0 -8.85,-4.09 -8.85,-10.22l0 -27.84 21.8 0.02 -0.13 -12.13zm113.79 -1.54c-6.63,-0.19 -12.83,3.24 -16.16,8.94l0 -7.41 -13.22 0.01 0 61.04 13.35 0 0 -34.22c0,-10.09 4.36,-15.71 12.83,-15.71 2.85,-0.04 5.69,0.48 8.34,1.53l4.11 -12.77c-3.05,-1.09 -6.26,-1.65 -9.49,-1.66l0.24 0.25zm-172.03 6.39c-7.55,-4.47 -16.24,-6.69 -25.02,-6.39 -15.52,0 -25.66,7.41 -25.66,19.54 0,9.96 7.44,16.09 21.17,18.01l6.41 0.89c7.31,1.02 10.78,2.94 10.78,6.39 0,4.72 -4.87,7.41 -13.98,7.41 -7.33,0.21 -14.51,-2.04 -20.4,-6.39l-6.41 10.34c7.77,5.4 17.08,8.18 26.56,7.92 17.7,0 27.97,-8.3 27.97,-19.92 0,-11.62 -8.08,-16.35 -21.42,-18.26l-6.41 -0.89c-5.77,-0.77 -10.39,-1.92 -10.39,-6 0,-4.09 4.36,-7.15 11.67,-7.15 6.76,0.08 13.38,1.88 19.24,5.24l5.89 -10.74zm357.35 -6.39c-6.63,-0.19 -12.83,3.24 -16.16,8.94l0 -7.41 -13.22 0.01 0 61.04 13.34 0 0 -34.22c0,-10.09 4.36,-15.71 12.83,-15.71 2.85,-0.04 5.69,0.48 8.34,1.53l4.11 -12.77c-3.05,-1.09 -6.26,-1.65 -9.49,-1.66l0.25 0.25zm-171.91 31.93c-0.32,8.67 3.04,17.08 9.27,23.16 6.23,6.08 14.74,9.26 23.44,8.77 8.01,0.41 15.88,-2.19 22.07,-7.28l-6.41 -10.73c-4.61,3.5 -10.24,5.43 -16.04,5.49 -10.23,-0.82 -18.1,-9.33 -18.1,-19.54 0,-10.21 7.88,-18.71 18.1,-19.54 5.8,0.06 11.42,1.99 16.04,5.49l6.41 -10.73c-6.18,-5.09 -14.05,-7.68 -22.07,-7.28 -8.71,-0.49 -17.22,2.69 -23.44,8.77 -6.23,6.08 -9.59,14.48 -9.27,23.16l0 0.26zm124.95 0l0 -30.39 -13.34 0 0 7.41c-4.6,-5.89 -11.76,-9.21 -19.24,-8.94 -17.71,0 -32.07,14.29 -32.07,31.93 0,17.63 14.36,31.93 32.07,31.93 7.49,0.27 14.65,-3.05 19.24,-8.94l0 7.41 13.34 -0.02 0 -30.39zm-49.65 0c0.59,-10.02 9.12,-17.73 19.2,-17.35 10.08,0.38 18,8.7 17.84,18.74 -0.16,10.04 -8.36,18.1 -18.44,18.15 -5.13,0.06 -10.06,-2.01 -13.6,-5.72 -3.54,-3.71 -5.35,-8.72 -5.01,-13.82l0.01 0zm-161 -31.93c-17.71,0.25 -31.87,14.74 -31.62,32.37 0.25,17.63 14.81,31.73 32.52,31.48 9.23,0.47 18.3,-2.49 25.47,-8.3l-6.41 -9.83c-5.07,4.04 -11.34,6.29 -17.83,6.39 -9.17,0.79 -17.3,-5.84 -18.35,-14.94l45.54 0c0,-1.66 0,-3.32 0,-5.11 0,-19.16 -11.93,-31.93 -29.12,-31.93l-0.2 -0.13zm0 11.88c4.03,-0.09 7.93,1.43 10.84,4.21 2.91,2.78 4.59,6.59 4.68,10.61l-32.07 -0.01c0.48,-8.53 7.72,-15.1 16.29,-14.81l0.26 0zm334.26 20.18l0 -55.04 -12.83 0 0 31.93c-4.6,-5.89 -11.76,-9.21 -19.24,-8.94 -17.71,0 -32.07,14.29 -32.07,31.93 0,17.63 14.36,31.93 32.07,31.93 7.49,0.27 14.65,-3.05 19.24,-8.94l0 7.41 12.83 -0.02 0 -30.26zm22.26 21.64c0.83,-0.01 1.66,0.14 2.44,0.45 0.74,0.3 1.41,0.73 1.99,1.28 0.56,0.55 1.02,1.2 1.35,1.92 0.66,1.51 0.66,3.22 0,4.72 -0.33,0.72 -0.78,1.37 -1.35,1.92 -0.58,0.54 -1.25,0.98 -1.99,1.28 -0.77,0.34 -1.6,0.51 -2.44,0.51 -2.48,-0.02 -4.73,-1.46 -5.77,-3.7 -0.65,-1.51 -0.65,-3.22 0,-4.72 0.33,-0.72 0.78,-1.37 1.35,-1.92 0.58,-0.54 1.25,-0.98 1.99,-1.28 0.84,-0.33 1.73,-0.48 2.63,-0.45l-0.2 -0.01zm0 10.79c0.64,0 1.27,-0.13 1.86,-0.38 0.55,-0.25 1.05,-0.59 1.48,-1.02 1.66,-1.81 1.66,-4.58 0,-6.39 -0.42,-0.43 -0.92,-0.78 -1.48,-1.02 -0.59,-0.25 -1.22,-0.39 -1.86,-0.38 -0.64,0 -1.27,0.13 -1.86,0.38 -0.58,0.24 -1.1,0.58 -1.54,1.02 -1.66,1.81 -1.66,4.58 0,6.39 0.44,0.44 0.96,0.78 1.54,1.02 0.65,0.28 1.35,0.41 2.05,0.38l-0.19 0zm0.38 -7.59c0.6,-0.03 1.19,0.15 1.67,0.51 0.4,0.33 0.61,0.83 0.58,1.34 0.02,0.43 -0.14,0.85 -0.45,1.15 -0.37,0.34 -0.85,0.54 -1.35,0.57l1.86 2.11 -1.47 0 -1.73 -2.11 -0.58 0 0 2.11 -1.22 0 0 -5.62 2.69 -0.06zm-1.41 1.08l0 1.53 1.41 0c0.25,0.07 0.52,0.07 0.77,0 0.09,-0.18 0.09,-0.39 0,-0.57 0.09,-0.18 0.09,-0.39 0,-0.57 -0.25,-0.07 -0.52,-0.07 -0.77,0l-1.41 -0.39zm-70.56 -25.92c0.59,-10.02 9.12,-17.73 19.2,-17.35 10.08,0.38 18,8.7 17.84,18.74 -0.16,10.04 -8.36,18.1 -18.44,18.15 -5.13,0.06 -10.06,-2.01 -13.6,-5.72 -3.53,-3.71 -5.35,-8.72 -5.01,-13.82l0.01 0zm-450.49 0l0 -30.52 -13.34 0 0 7.41c-4.6,-5.89 -11.76,-9.21 -19.24,-8.94 -17.7,0 -32.06,14.29 -32.06,31.93 0,17.63 14.36,31.93 32.06,31.93 7.49,0.27 14.65,-3.05 19.24,-8.94l0 7.41 13.34 -0.02 0 -30.26zm-49.63 0c0.59,-10.02 9.11,-17.73 19.19,-17.35 10.08,0.38 18,8.7 17.84,18.74 -0.16,10.04 -8.36,18.1 -18.44,18.15 -5.16,0.1 -10.12,-1.96 -13.68,-5.67 -3.55,-3.71 -5.38,-8.75 -5.04,-13.87l0.13 0z"/>
  <polygon class="fil5" points="8171.64,14585.88 8373.7,14585.88 8373.7,14947.33 8171.64,14947.33 "/>
  <path class="fil6" d="M8184.47 14766.64c-0.08,-70.55 32.45,-137.21 88.2,-180.76 -94.68,-74.07 -230.63,-63.28 -312.33,24.78 -81.7,88.06 -81.7,223.82 0,311.88 81.7,88.06 217.65,98.85 312.33,24.78 -55.73,-43.54 -88.25,-110.18 -88.2,-180.69l0 0.01z"/>
  <path class="fil7" d="M8646.3 14766.64c0,88 -50.48,168.28 -130,206.74 -79.52,38.46 -174.13,28.34 -243.63,-26.05 55.71,-43.58 88.23,-110.2 88.23,-180.72 0,-70.53 -32.53,-137.15 -88.23,-180.73 69.5,-54.39 164.11,-64.51 243.63,-26.05 79.52,38.46 130,118.74 130,206.75l0 0.06z"/>
  <path class="fil7" d="M8625.91 14926.35l0 -21.77 4.11 0.01 0 -4.5 -10.39 -0.01 0 4.5 4.45 0.01 0 21.77 1.83 -0.01zm20.17 0l0 -26.27 -3.14 0 -3.67 18.76 -3.67 -18.76 -2.79 0 0 26.27 2.27 0 0 -19.7 3.41 17.08 2.36 0 3.41 -17.08 0 19.89 1.82 -0.19z"/>
  <g style="clip-path:url(#id4)">
   <image x="9199.18" y="14535.76" width="581.04" height="581.03" xlink:href="2432-pagos-aceptados-91c4c8ad-344f-48cd-9bf0-b8f76421b039_Images\2432-pagos-aceptados-91c4c8ad-344f-48cd-9bf0-b8f76421b039_ImgID1.png"/>
  </g>
  <path class="fil8" d="M10245.36 14636.3c0,-14.69 12.01,-26.7 26.7,-26.7l804.01 0c14.69,0 26.7,12.01 26.7,26.7l0 341.78c0,14.69 -12.01,26.7 -26.7,26.7l-804.01 -0.01c-14.69,0 -26.7,-12.01 -26.7,-26.7l0 -341.77z"/>
  <polygon class="fil9" points="10245.36,14648.4 11102.77,14648.4 11102.77,14965.97 10245.36,14965.97 "/>
  <path class="fil10" d="M10971.99 14730.88c-39.23,0 -71.21,31.98 -71.21,71.21 0,39.2 31.98,71.19 71.21,71.19 39.22,0 71.2,-31.99 71.2,-71.19 0,-39.23 -31.98,-71.21 -71.2,-71.21z"/>
  <path class="fil10" d="M10385.08 14730.88c-39.23,0 -71.22,31.98 -71.22,71.21 0,39.2 31.98,71.19 71.22,71.19 39.21,0 71.2,-31.99 71.2,-71.19 0,-39.23 -31.98,-71.21 -71.2,-71.21z"/>
  <path class="fil10" d="M10966.4 14668.21c-65.92,-1.51 -96.9,40.75 -141.88,92.89l-42.43 49.17 67.19 80.42c16.01,24.71 -14.54,49.24 -33.5,26.63l-62.12 -74.1 -60.53 70.17c-19.28,22.34 -49.48,-2.62 -33.13,-27.1l65.71 -76.4 -43.05 -51.36 27.69 -34.3 43.78 52.59 37.74 -43.9c18.52,-21.52 37.4,-50.05 61.88,-64.72l-608.39 0.01 0 277.95 142.24 0c65.93,0 95.85,-39.42 139.61,-92.57l41.29 -50.14 -69.04 -78.85c-16.56,-24.34 13.41,-49.56 32.88,-27.39l63.8 72.65 58.91 -71.55c18.75,-22.79 49.52,1.48 33.74,26.33l-63.93 77.92 44.23 50.34 -27.87 33 -44.02 -49.65 -36.71 44.75c-18.02,21.95 -36.26,49.94 -60.4,65.17l602.68 -0.01 0 -277.95 -136.37 0zm-468.83 133.88c0,61.96 -50.53,112.49 -112.49,112.49 -61.98,0 -112.5,-50.53 -112.5,-112.49 0,-61.98 50.52,-112.5 112.5,-112.5 61.96,0 112.49,50.53 112.49,112.5zm474.42 112.49c-61.97,0 -112.5,-50.53 -112.5,-112.49 0,-61.98 50.53,-112.5 112.5,-112.5 61.97,0 112.5,50.53 112.5,112.5 0,61.96 -50.53,112.49 -112.5,112.49z"/>
  <path class="fil11" d="M14348.72 14607.91c-0.26,-54.96 -44.88,-99.43 -99.89,-99.43 -13.66,0 -27.06,2.6 -38.55,7.72l-363.98 154.57c-51.87,21.94 -88.36,73.35 -88.36,133.12l0 195.5c0,55.16 44.72,99.89 99.9,99.89 13.99,0 27.3,-2.9 39.4,-8.1l362.44 -153.88c52.24,-21.79 89.05,-73.37 89.05,-133.41l-0.01 -195.98z"/>
  <path class="fil9" d="M14013.86 14882.37c-4.24,0 -7.68,-3.82 -7.68,-8.51l0 -179.79c0,-4.71 3.44,-8.52 7.68,-8.52 4.25,0 7.69,3.81 7.69,8.52l0 179.79c0,4.69 -3.44,8.51 -7.69,8.51z"/>
  <path class="fil9" d="M14080.65 14874.34l0 -140.58c0,-4.76 -3.44,-8.61 -7.7,-8.61 -4.23,0 -7.66,3.85 -7.66,8.61l0 140.58c0,4.76 3.43,8.62 7.66,8.62 4.26,0 7.7,-3.86 7.7,-8.62z"/>
  <path class="fil9" d="M14080.65 14693.45l0 -0.44c0,-4.12 -3.44,-7.46 -7.7,-7.46 -4.23,0 -7.66,3.34 -7.66,7.46l0 0.44c0,4.13 3.43,7.46 7.66,7.46 4.26,0 7.7,-3.33 7.7,-7.46z"/>
  <g>
   <path class="fil9" d="M13960.49 14863.41c3.39,-3.36 3.39,-8.82 0,-12.18 -3.4,-3.37 -8.9,-3.37 -12.28,0 -25.06,24.83 -65.81,24.83 -90.87,0 -25.05,-24.87 -25.05,-65.31 0,-90.17 12.14,-12.03 28.28,-18.67 45.43,-18.67 17.17,0 33.29,6.64 45.42,18.67 3.4,3.38 8.9,3.38 12.3,0 3.39,-3.37 3.39,-8.82 0,-12.19 -15.42,-15.3 -35.91,-23.72 -57.72,-23.72 -21.8,0 -42.3,8.42 -57.72,23.72 -31.82,31.57 -31.82,82.95 0,114.54 15.92,15.79 36.81,23.68 57.73,23.68 20.89,0 41.79,-7.89 57.71,-23.68l0 0zm0 0l0 0 0 0z"/>
  </g>
  <path class="fil9" d="M14141.63 14917.5l0 -111.55c0,-35.07 28.59,-63.6 63.74,-63.6 35.14,0 63.73,28.53 63.73,63.6 0,35.08 -28.59,63.6 -63.73,63.6 -20.27,0 -33.98,-7.72 -34.09,-7.77 -4.1,-2.4 -9.39,-1.04 -11.79,3.06 -2.4,4.11 -1.03,9.37 3.07,11.79 0.71,0.41 17.63,10.13 42.81,10.13 44.65,0 80.97,-36.25 80.97,-80.81 0,-44.56 -36.32,-80.8 -80.97,-80.8 -44.66,0 -80.98,36.24 -80.98,80.8l0 111.55c0,4.74 3.87,8.6 8.62,8.6 4.76,0 8.62,-3.86 8.62,-8.6z"/>
  <path class="fil11" d="M14347.21 14974.57c0,13.71 -11.1,24.82 -24.82,24.82 -13.71,0 -24.82,-11.11 -24.82,-24.82 0,-13.72 11.11,-24.82 24.82,-24.82 13.72,0 24.82,11.1 24.82,24.82zm-3.9 0c0,-11.66 -9.4,-21.19 -20.92,-21.19 -11.52,0 -20.85,9.53 -20.85,21.19 0,11.66 9.33,21.19 20.85,21.19 11.52,0 20.92,-9.53 20.92,-21.19zm-10.5 13.58l-4.38 0 -6.25 -11.11 -4.11 0 0 11.11 -3.77 0 0 -27.23 9.26 0c4.73,0 8.57,3.57 8.57,8.16 0,3.98 -2.47,6.45 -5.83,7.48l6.51 11.59zm-4.52 -19.07c0,-2.74 -2.13,-4.8 -5.15,-4.8l-5.07 0 0 9.54 5.07 -0.01c3.02,0 5.15,-1.98 5.15,-4.73z"/>
  <g style="clip-path:url(#id5)">
   <image x="11432.57" y="14549.79" width="2015.59" height="525.05" xlink:href="2432-pagos-aceptados-91c4c8ad-344f-48cd-9bf0-b8f76421b039_Images\2432-pagos-aceptados-91c4c8ad-344f-48cd-9bf0-b8f76421b039_ImgID2.png"/>
  </g>
 </g>
</svg>
